# xmcd
#
# Track frame offsets:
#	150
#	26849
#	48919
#	76301
#	99354
#	127437
#	161771
#	180226
#	197068
#	226553
#	251718
#
# Disc length: 3597 seconds
# Revision: 0
# Processed by: cddbd v1.5.2PL0 Copyright (c) Steve Scherf et al.
# Submitted via: dBpowerAMP V12.0
#
DISCID=880e0b0b
DTITLE=Magic Slim - Let Me Love You
DYEAR=1978
DGENRE=Blues
TTITLE0=That's All Right
TTITLE1=Josephine's
TTITLE2=As the Years Go Passing By
TTITLE3=Everything Gonna Be Alright
TTITLE4=Let Me Love You
TTITLE5=The Things I Used to Do
TTITLE6=That Ain't Right
TTITLE7=Honest I Do
TTITLE8=Nineteen Years Old [Bonus]
TTITLE9=Mary Lou [Bonus]
TTITLE10=Please Love Me [Bonus]
EXTD=
EXTT0=
EXTT1=
EXTT2=
EXTT3=
EXTT4=
EXTT5=
EXTT6=
EXTT7=
EXTT8=
EXTT9=
EXTT10=
PLAYORDER=
